<svg width="154" height="37" viewBox="0 0 154 37" fill="none" xmlns="http://www.w3.org/2000/svg">
<path d="M17.9641 22.536H8.53205L7.02005 27H0.57605L9.72005 1.72798H16.8481L25.9921 27H19.476L17.9641 22.536ZM16.3801 17.784L13.2481 8.53199L10.1521 17.784H16.3801Z" fill="#000000"/>
<path d="M27.551 16.92C27.551 14.856 27.935 13.044 28.703 11.484C29.495 9.92399 30.563 8.72398 31.907 7.88399C33.251 7.04398 34.751 6.62398 36.407 6.62398C37.727 6.62398 38.927 6.89998 40.007 7.45198C41.111 8.00398 41.975 8.74798 42.599 9.68398V0.359985H48.755V27H42.599V24.12C42.023 25.08 41.195 25.848 40.115 26.424C39.059 27 37.823 27.288 36.407 27.288C34.751 27.288 33.251 26.868 31.907 26.028C30.563 25.164 29.495 23.952 28.703 22.392C27.935 20.808 27.551 18.984 27.551 16.92ZM42.599 16.956C42.599 15.42 42.167 14.208 41.303 13.32C40.463 12.432 39.431 11.988 38.207 11.988C36.983 11.988 35.939 12.432 35.075 13.32C34.235 14.184 33.815 15.384 33.815 16.92C33.815 18.456 34.235 19.68 35.075 20.592C35.939 21.48 36.983 21.924 38.207 21.924C39.431 21.924 40.463 21.48 41.303 20.592C42.167 19.704 42.599 18.492 42.599 16.956Z" fill="#000000"/>
<path d="M62.3526 27.288C60.3846 27.288 58.6086 26.868 57.0246 26.028C55.4646 25.188 54.2286 23.988 53.3166 22.428C52.4286 20.868 51.9846 19.044 51.9846 16.956C51.9846 14.892 52.4406 13.08 53.3526 11.52C54.2646 9.93598 55.5126 8.72398 57.0966 7.88399C58.6806 7.04398 60.4566 6.62398 62.4246 6.62398C64.3926 6.62398 66.1686 7.04398 67.7526 7.88399C69.3366 8.72398 70.5846 9.93598 71.4966 11.52C72.4086 13.08 72.8646 14.892 72.8646 16.956C72.8646 19.02 72.3966 20.844 71.4606 22.428C70.5486 23.988 69.2886 25.188 67.6806 26.028C66.0966 26.868 64.3206 27.288 62.3526 27.288ZM62.3526 21.96C63.5286 21.96 64.5246 21.528 65.3406 20.664C66.1806 19.8 66.6006 18.564 66.6006 16.956C66.6006 15.348 66.1926 14.112 65.3766 13.248C64.5846 12.384 63.6006 11.952 62.4246 11.952C61.2246 11.952 60.2286 12.384 59.4366 13.248C58.6446 14.088 58.2486 15.324 58.2486 16.956C58.2486 18.564 58.6326 19.8 59.4006 20.664C60.1926 21.528 61.1766 21.96 62.3526 21.96Z" fill="#000000"/>
<path d="M82.2865 9.75598C82.8865 8.81998 83.7145 8.06398 84.7705 7.48798C85.8265 6.91198 87.0625 6.62398 88.4785 6.62398C90.1345 6.62398 91.6345 7.04398 92.9785 7.88399C94.3225 8.72398 95.3785 9.92399 96.1465 11.484C96.9385 13.044 97.3345 14.856 97.3345 16.92C97.3345 18.984 96.9385 20.808 96.1465 22.392C95.3785 23.952 94.3225 25.164 92.9785 26.028C91.6345 26.868 90.1345 27.288 88.4785 27.288C87.0865 27.288 85.8505 27 84.7705 26.424C83.7145 25.848 82.8865 25.104 82.2865 24.192V36.576H76.1305V6.91198H82.2865V9.75598ZM91.0705 16.92C91.0705 15.384 90.6385 14.184 89.7745 13.32C88.9345 12.432 87.8905 11.988 86.6425 11.988C85.4185 11.988 84.3745 12.432 83.5105 13.32C82.6705 14.208 82.2505 15.42 82.2505 16.956C82.2505 18.492 82.6705 19.704 83.5105 20.592C84.3745 21.48 85.4185 21.924 86.6425 21.924C87.8665 21.924 88.9105 21.48 89.7745 20.592C90.6385 19.68 91.0705 18.456 91.0705 16.92Z" fill="#000000"/>
<path d="M119.5 16.632C119.5 17.208 119.464 17.808 119.392 18.432H105.46C105.556 19.68 105.952 20.64 106.648 21.312C107.368 21.96 108.244 22.284 109.276 22.284C110.812 22.284 111.88 21.636 112.48 20.34H119.032C118.696 21.66 118.084 22.848 117.196 23.904C116.332 24.96 115.24 25.788 113.92 26.388C112.6 26.988 111.124 27.288 109.492 27.288C107.524 27.288 105.772 26.868 104.236 26.028C102.7 25.188 101.5 23.988 100.636 22.428C99.7721 20.868 99.3401 19.044 99.3401 16.956C99.3401 14.868 99.7601 13.044 100.6 11.484C101.464 9.92399 102.664 8.72398 104.2 7.88399C105.736 7.04398 107.5 6.62398 109.492 6.62398C111.436 6.62398 113.164 7.03198 114.676 7.84799C116.188 8.66398 117.364 9.82799 118.204 11.34C119.068 12.852 119.5 14.616 119.5 16.632ZM113.2 15.012C113.2 13.956 112.84 13.116 112.12 12.492C111.4 11.868 110.5 11.556 109.42 11.556C108.388 11.556 107.512 11.856 106.792 12.456C106.096 13.056 105.664 13.908 105.496 15.012H113.2Z" fill="#000000"/>
<path d="M133.944 21.78V27H130.812C128.58 27 126.84 26.46 125.592 25.38C124.344 24.276 123.72 22.488 123.72 20.016V12.024H121.272V6.91198H123.72V2.01599H129.876V6.91198H133.908V12.024H129.876V20.088C129.876 20.688 130.02 21.12 130.308 21.384C130.596 21.648 131.076 21.78 131.748 21.78H133.944Z" fill="#000000"/>
<path d="M145.545 27.288C143.793 27.288 142.233 26.988 140.865 26.388C139.497 25.788 138.417 24.972 137.625 23.94C136.833 22.884 136.389 21.708 136.293 20.412H142.377C142.449 21.108 142.773 21.672 143.349 22.104C143.925 22.536 144.633 22.752 145.473 22.752C146.241 22.752 146.829 22.608 147.237 22.32C147.669 22.008 147.885 21.612 147.885 21.132C147.885 20.556 147.585 20.136 146.985 19.872C146.385 19.584 145.413 19.272 144.069 18.936C142.629 18.6 141.429 18.252 140.469 17.892C139.509 17.508 138.681 16.92 137.985 16.128C137.289 15.312 136.941 14.22 136.941 12.852C136.941 11.7 137.253 10.656 137.877 9.71999C138.525 8.75998 139.461 8.00398 140.685 7.45198C141.933 6.89998 143.409 6.62398 145.113 6.62398C147.633 6.62398 149.613 7.24798 151.053 8.49599C152.517 9.74399 153.357 11.4 153.573 13.464H147.885C147.789 12.768 147.477 12.216 146.949 11.808C146.445 11.4 145.773 11.196 144.933 11.196C144.213 11.196 143.661 11.34 143.277 11.628C142.893 11.892 142.701 12.264 142.701 12.744C142.701 13.32 143.001 13.752 143.601 14.04C144.225 14.328 145.185 14.616 146.481 14.904C147.969 15.288 149.181 15.672 150.117 16.056C151.053 16.416 151.869 17.016 152.565 17.856C153.285 18.672 153.657 19.776 153.681 21.168C153.681 22.344 153.345 23.4 152.673 24.336C152.025 25.248 151.077 25.968 149.829 26.496C148.605 27.024 147.177 27.288 145.545 27.288Z" fill="#000000"/>
</svg>
