<svg width="24" height="24" viewBox="0 0 24 24" fill="none" xmlns="http://www.w3.org/2000/svg">
<g clip-path="url(#clip0_135_166)">
<g clip-path="url(#clip1_135_166)">
<path d="M10 18L8.725 21.075C8.625 21.325 8.44583 21.5042 8.1875 21.6125C7.92917 21.7208 7.675 21.725 7.425 21.625C7.175 21.525 6.99583 21.3458 6.8875 21.0875C6.77917 20.8292 6.775 20.575 6.875 20.325L7.95 17.725C6.18333 17.2583 4.75 16.3083 3.65 14.875C2.55 13.4417 2 11.8167 2 10V6C2 4.9 2.39167 3.95833 3.175 3.175C3.95833 2.39167 4.9 2 6 2C6.36667 2 6.71667 2.0625 7.05 2.1875C7.38333 2.3125 7.71667 2.44167 8.05 2.575L12.825 4.525C13.0417 4.60833 13.1458 4.7625 13.1375 4.9875C13.1292 5.2125 13.0167 5.36667 12.8 5.45L10 6.5V8L20.65 14.775C20.7667 14.8583 20.8583 14.9542 20.925 15.0625C20.9917 15.1708 21.0417 15.2917 21.075 15.425L21.775 18.925C21.825 19.2083 21.7625 19.4583 21.5875 19.675C21.4125 19.8917 21.1833 20 20.9 20H20.55C20.3667 20 20.2083 19.9542 20.075 19.8625C19.9417 19.7708 19.8333 19.65 19.75 19.5L19 18H14V21C14 21.2833 13.9042 21.5208 13.7125 21.7125C13.5208 21.9042 13.2833 22 13 22C12.7167 22 12.4792 21.9042 12.2875 21.7125C12.0958 21.5208 12 21.2833 12 21V18H10ZM6 7C5.71667 7 5.47917 6.90417 5.2875 6.7125C5.09583 6.52083 5 6.28333 5 6C5 5.71667 5.09583 5.47917 5.2875 5.2875C5.47917 5.09583 5.71667 5 6 5C6.28333 5 6.52083 5.09583 6.7125 5.2875C6.90417 5.47917 7 5.71667 7 6C7 6.28333 6.90417 6.52083 6.7125 6.7125C6.52083 6.90417 6.28333 7 6 7ZM10 16H18.825L17.25 15H10C9.4 15 8.8375 14.8792 8.3125 14.6375C7.7875 14.3958 7.34167 14.0583 6.975 13.625C6.75833 13.3917 6.55 13.0708 6.35 12.6625C6.15 12.2542 6.05 11.8833 6.05 11.55C6.05 11.2667 6.14583 11.0292 6.3375 10.8375C6.52917 10.6458 6.76667 10.55 7.05 10.55C7.3 10.55 7.51667 10.6333 7.7 10.8C7.88333 10.9667 8 11.1667 8.05 11.4C8.13333 11.8667 8.35833 12.25 8.725 12.55C9.09167 12.85 9.51667 13 10 13H14.125L8 9.1V6C8 5.45 7.80417 4.97917 7.4125 4.5875C7.02083 4.19583 6.55 4 6 4C5.45 4 4.97917 4.19583 4.5875 4.5875C4.19583 4.97917 4 5.45 4 6V10C4 11.6667 4.58333 13.0833 5.75 14.25C6.91667 15.4167 8.33333 16 10 16Z" fill="#2E2E2E"/>
</g>
</g>
<defs>
<clipPath id="clip0_135_166">
<rect width="24" height="24" fill="white"/>
</clipPath>
<clipPath id="clip1_135_166">
<rect width="24" height="24" fill="white"/>
</clipPath>
</defs>
</svg>
