<svg width="20" height="20" viewBox="0 0 20 20" fill="none" xmlns="http://www.w3.org/2000/svg">
<path d="M7.5 16.6667V13.3333C6.79167 13.2778 6.09722 13.2014 5.41667 13.1042C4.73611 13.0069 4.05556 12.8819 3.375 12.7292C3.13889 12.6736 2.95139 12.5417 2.8125 12.3333C2.67361 12.125 2.63889 11.9028 2.70833 11.6667C2.77778 11.4305 2.92014 11.2569 3.13542 11.1458C3.35069 11.0347 3.57639 11.0069 3.8125 11.0625C4.82639 11.2986 5.85069 11.4583 6.88542 11.5417C7.92014 11.625 8.95833 11.6667 10 11.6667C11.0417 11.6667 12.0799 11.625 13.1146 11.5417C14.1493 11.4583 15.1736 11.2986 16.1875 11.0625C16.4375 11.0069 16.6667 11.0347 16.875 11.1458C17.0833 11.2569 17.2222 11.4305 17.2917 11.6667C17.3611 11.9028 17.3229 12.125 17.1771 12.3333C17.0312 12.5417 16.8403 12.6736 16.6042 12.7292C15.9236 12.8819 15.2431 13.0069 14.5625 13.1042C13.8819 13.2014 13.1944 13.2778 12.5 13.3333V16.6667C12.5 16.9028 12.4201 17.1007 12.2604 17.2604C12.1007 17.4201 11.9028 17.5 11.6667 17.5H8.33333C8.09722 17.5 7.89931 17.4201 7.73958 17.2604C7.57986 17.1007 7.5 16.9028 7.5 16.6667ZM10 10.8333C9.52778 10.8333 9.13194 10.6736 8.8125 10.3542C8.49306 10.0347 8.33333 9.63888 8.33333 9.16666C8.33333 8.70832 8.49306 8.31596 8.8125 7.98957C9.13194 7.66318 9.52778 7.49999 10 7.49999C10.4583 7.49999 10.8507 7.66318 11.1771 7.98957C11.5035 8.31596 11.6667 8.70832 11.6667 9.16666C11.6667 9.63888 11.5035 10.0347 11.1771 10.3542C10.8507 10.6736 10.4583 10.8333 10 10.8333ZM3.75 8.33332C3.38889 8.33332 3.09028 8.21527 2.85417 7.97916C2.61806 7.74304 2.5 7.44443 2.5 7.08332C2.5 6.7361 2.61806 6.44096 2.85417 6.19791C3.09028 5.95485 3.38889 5.83332 3.75 5.83332C4.09722 5.83332 4.39236 5.95485 4.63542 6.19791C4.87847 6.44096 5 6.7361 5 7.08332C5 7.44443 4.87847 7.74304 4.63542 7.97916C4.39236 8.21527 4.09722 8.33332 3.75 8.33332ZM16.25 8.33332C15.8889 8.33332 15.5903 8.21527 15.3542 7.97916C15.1181 7.74304 15 7.44443 15 7.08332C15 6.7361 15.1181 6.44096 15.3542 6.19791C15.5903 5.95485 15.8889 5.83332 16.25 5.83332C16.5972 5.83332 16.8924 5.95485 17.1354 6.19791C17.3785 6.44096 17.5 6.7361 17.5 7.08332C17.5 7.44443 17.3785 7.74304 17.1354 7.97916C16.8924 8.21527 16.5972 8.33332 16.25 8.33332ZM6.04167 5.20832C5.68056 5.20832 5.38194 5.09027 5.14583 4.85416C4.90972 4.61805 4.79167 4.31943 4.79167 3.95832C4.79167 3.6111 4.90972 3.31596 5.14583 3.07291C5.38194 2.82985 5.68056 2.70832 6.04167 2.70832C6.38889 2.70832 6.68403 2.82985 6.92708 3.07291C7.17014 3.31596 7.29167 3.6111 7.29167 3.95832C7.29167 4.31943 7.17014 4.61805 6.92708 4.85416C6.68403 5.09027 6.38889 5.20832 6.04167 5.20832ZM13.9583 5.20832C13.5972 5.20832 13.2986 5.09027 13.0625 4.85416C12.8264 4.61805 12.7083 4.31943 12.7083 3.95832C12.7083 3.6111 12.8264 3.31596 13.0625 3.07291C13.2986 2.82985 13.5972 2.70832 13.9583 2.70832C14.3056 2.70832 14.6007 2.82985 14.8438 3.07291C15.0868 3.31596 15.2083 3.6111 15.2083 3.95832C15.2083 4.31943 15.0868 4.61805 14.8438 4.85416C14.6007 5.09027 14.3056 5.20832 13.9583 5.20832ZM10 4.16666C9.63889 4.16666 9.34028 4.0486 9.10417 3.81249C8.86806 3.57638 8.75 3.27777 8.75 2.91666C8.75 2.56943 8.86806 2.2743 9.10417 2.03124C9.34028 1.78818 9.63889 1.66666 10 1.66666C10.3472 1.66666 10.6424 1.78818 10.8854 2.03124C11.1285 2.2743 11.25 2.56943 11.25 2.91666C11.25 3.27777 11.1285 3.57638 10.8854 3.81249C10.6424 4.0486 10.3472 4.16666 10 4.16666Z" fill="url(#paint0_linear_143_392)"/>
<defs>
<linearGradient id="paint0_linear_143_392" x1="10" y1="1.66666" x2="10" y2="17.5" gradientUnits="userSpaceOnUse">
<stop stop-color="#81CAEE"/>
<stop offset="1" stop-color="#00AAFF"/>
</linearGradient>
</defs>
</svg>
