<svg width="51" height="52" viewBox="0 0 51 52" fill="none" xmlns="http://www.w3.org/2000/svg">
<path d="M47 14C47 12.8954 47.8954 12 49 12C50.1046 12 51 12.8954 51 14C51 15.1046 50.1046 16 49 16C47.8954 16 47 15.1046 47 14Z" fill="#003366"/>
<path d="M47 2C47 0.895432 47.8954 2.7141e-07 49 1.74846e-07C50.1046 7.8281e-08 51 0.895432 51 2C51 3.10457 50.1046 4 49 4C47.8954 4 47 3.10457 47 2Z" fill="#003366"/>
<path d="M23 26C23 24.8954 23.8954 24 25 24C26.1046 24 27 24.8954 27 26C27 27.1046 26.1046 28 25 28C23.8954 28 23 27.1046 23 26Z" fill="#003366"/>
<path d="M23 38C23 36.8954 23.8954 36 25 36C26.1046 36 27 36.8954 27 38C27 39.1046 26.1046 40 25 40C23.8954 40 23 39.1046 23 38Z" fill="#003366"/>
<path d="M23 14C23 12.8954 23.8954 12 25 12C26.1046 12 27 12.8954 27 14C27 15.1046 26.1046 16 25 16C23.8954 16 23 15.1046 23 14Z" fill="#003366"/>
<path d="M23 2C23 0.895434 23.8954 2.36956e-06 25 2.27299e-06C26.1046 2.17643e-06 27 0.895434 27 2C27 3.10457 26.1046 4 25 4C23.8954 4 23 3.10457 23 2Z" fill="#003366"/>
<path d="M35 26C35 24.8954 35.8954 24 37 24C38.1046 24 39 24.8954 39 26C39 27.1046 38.1046 28 37 28C35.8954 28 35 27.1046 35 26Z" fill="#003366"/>
<path d="M35 38C35 36.8954 35.8954 36 37 36C38.1046 36 39 36.8954 39 38C39 39.1046 38.1046 40 37 40C35.8954 40 35 39.1046 35 38Z" fill="#003366"/>
<path d="M35 14C35 12.8954 35.8954 12 37 12C38.1046 12 39 12.8954 39 14C39 15.1046 38.1046 16 37 16C35.8954 16 35 15.1046 35 14Z" fill="#003366"/>
<path d="M35 2C35 0.895433 35.8954 1.32048e-06 37 1.22392e-06C38.1046 1.12735e-06 39 0.895433 39 2C39 3.10457 38.1046 4 37 4C35.8954 4 35 3.10457 35 2Z" fill="#003366"/>
<path d="M11 50C11 48.8954 11.8954 48 13 48C14.1046 48 15 48.8954 15 50C15 51.1046 14.1046 52 13 52C11.8954 52 11 51.1046 11 50Z" fill="#003366"/>
<path d="M11 26C11 24.8954 11.8954 24 13 24C14.1046 24 15 24.8954 15 26C15 27.1046 14.1046 28 13 28C11.8954 28 11 27.1046 11 26Z" fill="#003366"/>
<path d="M11 38C11 36.8954 11.8954 36 13 36C14.1046 36 15 36.8954 15 38C15 39.1046 14.1046 40 13 40C11.8954 40 11 39.1046 11 38Z" fill="#003366"/>
<path d="M11 14C11 12.8954 11.8954 12 13 12C14.1046 12 15 12.8954 15 14C15 15.1046 14.1046 16 13 16C11.8954 16 11 15.1046 11 14Z" fill="#003366"/>
<path d="M11 2C11 0.895435 11.8954 3.41863e-06 13 3.32207e-06C14.1046 3.2255e-06 15 0.895435 15 2C15 3.10457 14.1046 4 13 4C11.8954 4 11 3.10457 11 2Z" fill="#003366"/>
<path d="M-1.74846e-07 50C-2.7141e-07 48.8954 0.895431 48 2 48C3.10457 48 4 48.8954 4 50C4 51.1046 3.10457 52 2 52C0.895432 52 -7.8281e-08 51.1046 -1.74846e-07 50Z" fill="#003366"/>
<path d="M-2.27299e-06 26C-2.36956e-06 24.8954 0.895429 24 2 24C3.10457 24 4 24.8954 4 26C4 27.1046 3.10457 28 2 28C0.895429 28 -2.17643e-06 27.1046 -2.27299e-06 26Z" fill="#003366"/>
<path d="M-1.22392e-06 38C-1.32048e-06 36.8954 0.89543 36 2 36C3.10457 36 4 36.8954 4 38C4 39.1046 3.10457 40 2 40C0.89543 40 -1.12735e-06 39.1046 -1.22392e-06 38Z" fill="#003366"/>
<path d="M-3.32207e-06 14C-3.41863e-06 12.8954 0.895428 12 2 12C3.10456 12 4 12.8954 4 14C4 15.1046 3.10457 16 2 16C0.895428 16 -3.2255e-06 15.1046 -3.32207e-06 14Z" fill="#003366"/>
<path d="M-4.37114e-06 2C-4.4677e-06 0.895436 0.895427 4.38028e-06 2 4.28372e-06C3.10456 4.18715e-06 4 0.895436 4 2C4 3.10457 3.10456 4 2 4C0.895427 4 -4.27457e-06 3.10457 -4.37114e-06 2Z" fill="#003366"/>
</svg>
