<svg width="20" height="20" viewBox="0 0 20 20" fill="none" xmlns="http://www.w3.org/2000/svg">
<path d="M9.16675 15.8334H8.33341C8.0973 15.8334 7.89939 15.7535 7.73966 15.5938C7.57994 15.4341 7.50008 15.2362 7.50008 15C7.50008 14.7639 7.57994 14.566 7.73966 14.4063C7.89939 14.2466 8.0973 14.1667 8.33341 14.1667H9.16675V12.4167C8.06953 12.2223 7.17022 11.698 6.46883 10.8438C5.76744 9.98962 5.41675 9.00004 5.41675 7.87504C5.41675 6.61115 5.86466 5.53824 6.7605 4.65629C7.65633 3.77435 8.73619 3.33337 10.0001 3.33337C11.264 3.33337 12.3438 3.77435 13.2397 4.65629C14.1355 5.53824 14.5834 6.61115 14.5834 7.87504C14.5834 9.00004 14.2327 9.98962 13.5313 10.8438C12.8299 11.698 11.9306 12.2223 10.8334 12.4167V14.1667H11.6667C11.9029 14.1667 12.1008 14.2466 12.2605 14.4063C12.4202 14.566 12.5001 14.7639 12.5001 15C12.5001 15.2362 12.4202 15.4341 12.2605 15.5938C12.1008 15.7535 11.9029 15.8334 11.6667 15.8334H10.8334V16.6667C10.8334 16.9028 10.7536 17.1007 10.5938 17.2605C10.4341 17.4202 10.2362 17.5 10.0001 17.5C9.76397 17.5 9.56605 17.4202 9.40633 17.2605C9.24661 17.1007 9.16675 16.9028 9.16675 16.6667V15.8334ZM10.0001 10.8334C10.8056 10.8334 11.4931 10.5487 12.0626 9.97921C12.632 9.40976 12.9167 8.72226 12.9167 7.91671C12.9167 7.11115 12.632 6.42365 12.0626 5.85421C11.4931 5.28476 10.8056 5.00004 10.0001 5.00004C9.19453 5.00004 8.50703 5.28476 7.93758 5.85421C7.36814 6.42365 7.08341 7.11115 7.08341 7.91671C7.08341 8.72226 7.36814 9.40976 7.93758 9.97921C8.50703 10.5487 9.19453 10.8334 10.0001 10.8334Z" fill="url(#paint0_linear_236_466)"/>
<defs>
<linearGradient id="paint0_linear_236_466" x1="10.0001" y1="3.33337" x2="10.0001" y2="17.5" gradientUnits="userSpaceOnUse">
<stop stop-color="#81CAEE"/>
<stop offset="1" stop-color="#00AAFF"/>
</linearGradient>
</defs>
</svg>
