<svg width="20" height="20" viewBox="0 0 20 20" fill="none" xmlns="http://www.w3.org/2000/svg">
<path d="M9.99992 16.125C11.6944 14.5694 12.9513 13.1562 13.7708 11.8854C14.5902 10.6145 14.9999 9.48607 14.9999 8.49996C14.9999 6.98607 14.5173 5.74649 13.552 4.78121C12.5867 3.81593 11.4027 3.33329 9.99992 3.33329C8.59714 3.33329 7.41311 3.81593 6.44784 4.78121C5.48256 5.74649 4.99992 6.98607 4.99992 8.49996C4.99992 9.48607 5.40964 10.6145 6.22909 11.8854C7.04853 13.1562 8.30547 14.5694 9.99992 16.125ZM9.99992 17.7708C9.80547 17.7708 9.61103 17.7361 9.41658 17.6666C9.22214 17.5972 9.04853 17.493 8.89575 17.3541C7.99297 16.5208 7.19436 15.7083 6.49992 14.9166C5.80547 14.125 5.22561 13.3576 4.76034 12.6145C4.29506 11.8715 3.94089 11.1562 3.69784 10.4687C3.45478 9.78121 3.33325 9.12496 3.33325 8.49996C3.33325 6.41663 4.00339 4.7569 5.34367 3.52079C6.68395 2.28468 8.23603 1.66663 9.99992 1.66663C11.7638 1.66663 13.3159 2.28468 14.6562 3.52079C15.9964 4.7569 16.6666 6.41663 16.6666 8.49996C16.6666 9.12496 16.5451 9.78121 16.302 10.4687C16.0589 11.1562 15.7048 11.8715 15.2395 12.6145C14.7742 13.3576 14.1944 14.125 13.4999 14.9166C12.8055 15.7083 12.0069 16.5208 11.1041 17.3541C10.9513 17.493 10.7777 17.5972 10.5833 17.6666C10.3888 17.7361 10.1944 17.7708 9.99992 17.7708ZM9.99992 9.99996C10.4583 9.99996 10.8506 9.83677 11.177 9.51038C11.5034 9.18399 11.6666 8.79163 11.6666 8.33329C11.6666 7.87496 11.5034 7.4826 11.177 7.15621C10.8506 6.82982 10.4583 6.66663 9.99992 6.66663C9.54158 6.66663 9.14922 6.82982 8.82283 7.15621C8.49645 7.4826 8.33325 7.87496 8.33325 8.33329C8.33325 8.79163 8.49645 9.18399 8.82283 9.51038C9.14922 9.83677 9.54158 9.99996 9.99992 9.99996Z" fill="url(#paint0_linear_236_468)"/>
<defs>
<linearGradient id="paint0_linear_236_468" x1="9.99993" y1="1.66663" x2="9.99993" y2="17.7708" gradientUnits="userSpaceOnUse">
<stop stop-color="#81CAEE"/>
<stop offset="1" stop-color="#00AAFF"/>
</linearGradient>
</defs>
</svg>
