<svg width="20" height="20" viewBox="0 0 20 20" fill="none" xmlns="http://www.w3.org/2000/svg">
<path d="M16.6666 4.16671V7.50004C16.6666 7.73615 16.5867 7.93407 16.427 8.09379C16.2673 8.25351 16.0694 8.33337 15.8333 8.33337C15.5971 8.33337 15.3992 8.25351 15.2395 8.09379C15.0798 7.93407 14.9999 7.73615 14.9999 7.50004V6.18754L11.6874 9.47921C11.9513 9.8681 12.1527 10.2813 12.2916 10.7188C12.4305 11.1563 12.4999 11.6112 12.4999 12.0834C12.4999 13.3612 12.0555 14.4445 11.1666 15.3334C10.2777 16.2223 9.19436 16.6667 7.91659 16.6667C6.63881 16.6667 5.55547 16.2223 4.66659 15.3334C3.7777 14.4445 3.33325 13.3612 3.33325 12.0834C3.33325 10.8056 3.7777 9.72226 4.66659 8.83337C5.55547 7.94448 6.63881 7.50004 7.91659 7.50004C8.37492 7.50004 8.82631 7.56601 9.27075 7.69796C9.7152 7.8299 10.1249 8.03476 10.4999 8.31254L13.8124 5.00004H12.4999C12.2638 5.00004 12.0659 4.92018 11.9062 4.76046C11.7464 4.60074 11.6666 4.40282 11.6666 4.16671C11.6666 3.9306 11.7464 3.73268 11.9062 3.57296C12.0659 3.41324 12.2638 3.33337 12.4999 3.33337H15.8333C16.0694 3.33337 16.2673 3.41324 16.427 3.57296C16.5867 3.73268 16.6666 3.9306 16.6666 4.16671ZM7.91659 9.16671C7.11103 9.16671 6.42353 9.45143 5.85409 10.0209C5.28464 10.5903 4.99992 11.2778 4.99992 12.0834C4.99992 12.8889 5.28464 13.5764 5.85409 14.1459C6.42353 14.7153 7.11103 15 7.91659 15C8.72214 15 9.40964 14.7153 9.97908 14.1459C10.5485 13.5764 10.8333 12.8889 10.8333 12.0834C10.8333 11.2778 10.5485 10.5903 9.97908 10.0209C9.40964 9.45143 8.72214 9.16671 7.91659 9.16671Z" fill="url(#paint0_linear_236_470)"/>
<defs>
<linearGradient id="paint0_linear_236_470" x1="9.99993" y1="3.33337" x2="9.99993" y2="16.6667" gradientUnits="userSpaceOnUse">
<stop stop-color="#81CAEE"/>
<stop offset="1" stop-color="#00AAFF"/>
</linearGradient>
</defs>
</svg>
