<svg width="20" height="20" viewBox="0 0 20 20" fill="none" xmlns="http://www.w3.org/2000/svg">
<path d="M5.00005 15.8333H15L13.8125 7.5H6.18755L5.00005 15.8333ZM10 5.83333C10.2362 5.83333 10.4341 5.75347 10.5938 5.59375C10.7535 5.43403 10.8334 5.23611 10.8334 5C10.8334 4.76389 10.7535 4.56597 10.5938 4.40625C10.4341 4.24653 10.2362 4.16667 10 4.16667C9.76394 4.16667 9.56602 4.24653 9.4063 4.40625C9.24657 4.56597 9.16671 4.76389 9.16671 5C9.16671 5.23611 9.24657 5.43403 9.4063 5.59375C9.56602 5.75347 9.76394 5.83333 10 5.83333ZM12.3542 5.83333H13.8125C14.2292 5.83333 14.5903 5.97222 14.8959 6.25C15.2014 6.52778 15.3889 6.86806 15.4584 7.27083L16.6459 15.6042C16.7153 16.1042 16.5869 16.5451 16.2605 16.9271C15.9341 17.309 15.5139 17.5 15 17.5H5.00005C4.48616 17.5 4.06602 17.309 3.73963 16.9271C3.41324 16.5451 3.28477 16.1042 3.35421 15.6042L4.54171 7.27083C4.61116 6.86806 4.79866 6.52778 5.10421 6.25C5.40977 5.97222 5.77088 5.83333 6.18755 5.83333H7.64588C7.60421 5.69444 7.56949 5.55903 7.54171 5.42708C7.51393 5.29514 7.50005 5.15278 7.50005 5C7.50005 4.30556 7.7431 3.71528 8.22921 3.22917C8.71532 2.74306 9.3056 2.5 10 2.5C10.6945 2.5 11.2848 2.74306 11.7709 3.22917C12.257 3.71528 12.5 4.30556 12.5 5C12.5 5.15278 12.4862 5.29514 12.4584 5.42708C12.4306 5.55903 12.3959 5.69444 12.3542 5.83333Z" fill="url(#paint0_linear_143_426)"/>
<defs>
<linearGradient id="paint0_linear_143_426" x1="10" y1="2.5" x2="10" y2="17.5" gradientUnits="userSpaceOnUse">
<stop stop-color="#81CAEE"/>
<stop offset="1" stop-color="#00AAFF"/>
</linearGradient>
</defs>
</svg>
