<svg width="20" height="20" viewBox="0 0 20 20" fill="none" xmlns="http://www.w3.org/2000/svg">
<g clip-path="url(#clip0_143_396)">
<g clip-path="url(#clip1_143_396)">
<path d="M7.29167 18.6875C6.65278 18.6875 6.07986 18.5208 5.57292 18.1875C5.06597 17.8542 4.67361 17.3958 4.39583 16.8125C4.17361 17.1042 3.89236 17.3299 3.55208 17.4896C3.21181 17.6493 2.86111 17.7292 2.5 17.7292C1.79167 17.7292 1.19792 17.4861 0.71875 17C0.239583 16.5139 0 15.9236 0 15.2292C0 14.6319 0.194444 14.0937 0.583333 13.6146C0.972222 13.1354 1.46528 12.8611 2.0625 12.7917C1.86806 12.5139 1.71875 12.2187 1.61458 11.9062C1.51042 11.5937 1.45833 11.2639 1.45833 10.9167C1.45833 10.6805 1.48611 10.4444 1.54167 10.2083C1.59722 9.97221 1.68056 9.74305 1.79167 9.52082C1.90278 9.31249 2.06597 9.17013 2.28125 9.09374C2.49653 9.01735 2.70833 9.03471 2.91667 9.14582C3.125 9.25693 3.27083 9.42013 3.35417 9.63541C3.4375 9.85068 3.42361 10.0625 3.3125 10.2708C3.25694 10.3819 3.21528 10.493 3.1875 10.6042C3.15972 10.7153 3.14583 10.8264 3.14583 10.9375C3.14583 11.6458 3.42014 12.1042 3.96875 12.3125C4.51736 12.5208 5.06944 12.6736 5.625 12.7708C5.73611 12.7986 5.84028 12.8403 5.9375 12.8958C6.03472 12.9514 6.11111 13.0278 6.16667 13.125C6.22222 13.2222 6.25347 13.3229 6.26042 13.4271C6.26736 13.5312 6.25 13.6389 6.20833 13.75C6.06944 14.125 5.95833 14.4444 5.875 14.7083C5.79167 14.9722 5.75 15.2222 5.75 15.4583C5.75 15.875 5.89931 16.2396 6.19792 16.5521C6.49653 16.8646 6.86111 17.0208 7.29167 17.0208C7.73611 17.0208 8.11806 16.8507 8.4375 16.5104C8.75694 16.1701 9.02431 15.7465 9.23958 15.2396C9.45486 14.7326 9.62847 14.1944 9.76042 13.625C9.89236 13.0555 10 12.5417 10.0833 12.0833C10.125 11.8472 10.2431 11.6632 10.4375 11.5312C10.6319 11.3993 10.8403 11.368 11.0625 11.4375C11.2986 11.5069 11.4757 11.6458 11.5938 11.8542C11.7118 12.0625 11.7431 12.2847 11.6875 12.5208C11.5625 13.1597 11.4028 13.8403 11.2083 14.5625C11.0139 15.2847 10.7535 15.9514 10.4271 16.5625C10.1007 17.1736 9.68403 17.6805 9.17708 18.0833C8.67014 18.4861 8.04167 18.6875 7.29167 18.6875ZM12.7292 18.6875C12.4792 18.6875 12.2743 18.6076 12.1146 18.4479C11.9549 18.2882 11.875 18.0903 11.875 17.8542C11.875 17.618 11.9549 17.4201 12.1146 17.2604C12.2743 17.1007 12.4722 17.0208 12.7083 17.0208C13.1528 17.0208 13.5243 16.8646 13.8229 16.5521C14.1215 16.2396 14.2708 15.868 14.2708 15.4375C14.2708 15.2014 14.2257 14.941 14.1354 14.6562C14.0451 14.3715 13.9236 14.0278 13.7708 13.625C13.7431 13.5278 13.7292 13.434 13.7292 13.3437C13.7292 13.2535 13.7569 13.1667 13.8125 13.0833C13.8681 13 13.9306 12.934 14 12.8854C14.0694 12.8368 14.1597 12.7986 14.2708 12.7708C14.8403 12.6736 15.4167 12.5243 16 12.3229C16.5833 12.1215 16.875 11.6528 16.875 10.9167C16.875 10.3611 16.6701 9.95832 16.2604 9.70832C15.8507 9.45832 15.4028 9.33332 14.9167 9.33332C14.4306 9.33332 13.8681 9.41666 13.2292 9.58332C12.5903 9.74999 11.8611 9.96527 11.0417 10.2292C10.8056 10.2986 10.5764 10.2882 10.3542 10.1979C10.1319 10.1076 9.98611 9.94443 9.91667 9.70832C9.84722 9.47221 9.88194 9.24999 10.0208 9.04166C10.1597 8.83332 10.3472 8.69443 10.5833 8.62499C11.4583 8.34721 12.25 8.11805 12.9583 7.93749C13.6667 7.75693 14.3264 7.66666 14.9375 7.66666C15.8958 7.66666 16.7361 7.95138 17.4583 8.52082C18.1806 9.09027 18.5417 9.88888 18.5417 10.9167C18.5417 11.2639 18.4896 11.5937 18.3854 11.9062C18.2812 12.2187 18.1319 12.5139 17.9375 12.7917C18.5347 12.8611 19.0278 13.1354 19.4167 13.6146C19.8056 14.0937 20 14.6319 20 15.2292C20 15.9236 19.7604 16.5139 19.2812 17C18.8021 17.4861 18.2083 17.7292 17.5 17.7292C17.1389 17.7292 16.7882 17.6493 16.4479 17.4896C16.1076 17.3299 15.8264 17.1042 15.6042 16.8125C15.3264 17.3819 14.9375 17.8333 14.4375 18.1667C13.9375 18.5 13.3681 18.6736 12.7292 18.6875ZM7.6875 12.1042C6.61806 11.1319 5.76389 10.25 5.125 9.45832C4.48611 8.66666 4.16667 7.81249 4.16667 6.89582C4.16667 5.99305 4.47569 5.23263 5.09375 4.61457C5.71181 3.99652 6.47222 3.68749 7.375 3.68749C7.43056 3.68749 7.47917 3.69096 7.52083 3.69791C7.5625 3.70485 7.61111 3.70832 7.66667 3.70832C7.61111 3.56943 7.56944 3.43055 7.54167 3.29166C7.51389 3.15277 7.5 3.00693 7.5 2.85416C7.5 2.15971 7.74306 1.56943 8.22917 1.08332C8.71528 0.597212 9.30556 0.354156 10 0.354156C10.6944 0.354156 11.2847 0.597212 11.7708 1.08332C12.2569 1.56943 12.5 2.15971 12.5 2.85416C12.5 3.00693 12.4861 3.1493 12.4583 3.28124C12.4306 3.41318 12.3889 3.5486 12.3333 3.68749H12.625C12.9861 3.68749 13.3299 3.74305 13.6562 3.85416C13.9826 3.96527 14.2847 4.12499 14.5625 4.33332C14.7569 4.47221 14.8681 4.65277 14.8958 4.87499C14.9236 5.09721 14.8681 5.30555 14.7292 5.49999C14.5903 5.69443 14.4097 5.80555 14.1875 5.83332C13.9653 5.8611 13.7569 5.80555 13.5625 5.66666C13.4236 5.55555 13.2778 5.47568 13.125 5.42707C12.9722 5.37846 12.8056 5.35416 12.625 5.35416C12.1806 5.35416 11.8229 5.47916 11.5521 5.72916C11.2812 5.97916 10.9375 6.34721 10.5208 6.83332C10.4514 6.91666 10.375 6.97916 10.2917 7.02082C10.2083 7.06249 10.1111 7.08332 10 7.08332C9.88889 7.08332 9.78819 7.06249 9.69792 7.02082C9.60764 6.97916 9.52778 6.91666 9.45833 6.83332C9.02778 6.33332 8.68403 5.9618 8.42708 5.71874C8.17014 5.47568 7.81944 5.35416 7.375 5.35416C6.93056 5.35416 6.5625 5.49999 6.27083 5.79166C5.97917 6.08332 5.83333 6.45138 5.83333 6.89582C5.83333 7.47916 6.10764 8.0868 6.65625 8.71874C7.20486 9.35068 7.94444 10.0903 8.875 10.9375C9.06944 11.1042 9.18403 11.309 9.21875 11.5521C9.25347 11.7951 9.1875 12 9.02083 12.1667C8.84028 12.3472 8.62153 12.4271 8.36458 12.4062C8.10764 12.3854 7.88194 12.2847 7.6875 12.1042ZM2.5 16.0625C2.73611 16.0625 2.93403 15.9826 3.09375 15.8229C3.25347 15.6632 3.33333 15.4653 3.33333 15.2292C3.33333 14.993 3.25347 14.7951 3.09375 14.6354C2.93403 14.4757 2.73611 14.3958 2.5 14.3958C2.26389 14.3958 2.06597 14.4757 1.90625 14.6354C1.74653 14.7951 1.66667 14.993 1.66667 15.2292C1.66667 15.4653 1.74653 15.6632 1.90625 15.8229C2.06597 15.9826 2.26389 16.0625 2.5 16.0625ZM10 3.68749C10.2361 3.68749 10.434 3.60763 10.5938 3.44791C10.7535 3.28818 10.8333 3.09027 10.8333 2.85416C10.8333 2.61805 10.7535 2.42013 10.5938 2.26041C10.434 2.10068 10.2361 2.02082 10 2.02082C9.76389 2.02082 9.56597 2.10068 9.40625 2.26041C9.24653 2.42013 9.16667 2.61805 9.16667 2.85416C9.16667 3.09027 9.24653 3.28818 9.40625 3.44791C9.56597 3.60763 9.76389 3.68749 10 3.68749ZM17.5208 16.0625C17.7569 16.0625 17.9514 15.9826 18.1042 15.8229C18.2569 15.6632 18.3333 15.4653 18.3333 15.2292C18.3333 14.993 18.2535 14.7917 18.0938 14.625C17.934 14.4583 17.7361 14.375 17.5 14.375C17.2639 14.375 17.066 14.4549 16.9062 14.6146C16.7465 14.7743 16.6667 14.9722 16.6667 15.2083C16.6667 15.4444 16.75 15.6458 16.9167 15.8125C17.0833 15.9792 17.2847 16.0625 17.5208 16.0625Z" fill="url(#paint0_linear_143_396)"/>
</g>
</g>
<defs>
<linearGradient id="paint0_linear_143_396" x1="10" y1="0.354156" x2="10" y2="18.6875" gradientUnits="userSpaceOnUse">
<stop stop-color="#81CAEE"/>
<stop offset="1" stop-color="#00AAFF"/>
</linearGradient>
<clipPath id="clip0_143_396">
<rect width="20" height="20" fill="white"/>
</clipPath>
<clipPath id="clip1_143_396">
<rect width="20" height="20" fill="white"/>
</clipPath>
</defs>
</svg>
