<svg width="20" height="20" viewBox="0 0 20 20" fill="none" xmlns="http://www.w3.org/2000/svg">
<path d="M3.33317 15C2.87484 15 2.48248 14.8368 2.15609 14.5104C1.8297 14.184 1.6665 13.7917 1.6665 13.3333V6.66667C1.6665 6.20833 1.8297 5.81597 2.15609 5.48958C2.48248 5.16319 2.87484 5 3.33317 5H16.6665C17.1248 5 17.5172 5.16319 17.8436 5.48958C18.17 5.81597 18.3332 6.20833 18.3332 6.66667V13.3333C18.3332 13.7917 18.17 14.184 17.8436 14.5104C17.5172 14.8368 17.1248 15 16.6665 15H3.33317ZM3.33317 13.3333H16.6665V6.66667H14.1665V9.16667C14.1665 9.40278 14.0866 9.60069 13.9269 9.76042C13.7672 9.92014 13.5693 10 13.3332 10C13.0971 10 12.8991 9.92014 12.7394 9.76042C12.5797 9.60069 12.4998 9.40278 12.4998 9.16667V6.66667H10.8332V9.16667C10.8332 9.40278 10.7533 9.60069 10.5936 9.76042C10.4339 9.92014 10.2359 10 9.99984 10C9.76373 10 9.56581 9.92014 9.40609 9.76042C9.24636 9.60069 9.1665 9.40278 9.1665 9.16667V6.66667H7.49984V9.16667C7.49984 9.40278 7.41998 9.60069 7.26025 9.76042C7.10053 9.92014 6.90261 10 6.6665 10C6.43039 10 6.23248 9.92014 6.07275 9.76042C5.91303 9.60069 5.83317 9.40278 5.83317 9.16667V6.66667H3.33317V13.3333Z" fill="url(#paint0_linear_143_420)"/>
<defs>
<linearGradient id="paint0_linear_143_420" x1="9.99984" y1="5" x2="9.99984" y2="15" gradientUnits="userSpaceOnUse">
<stop stop-color="#81CAEE"/>
<stop offset="1" stop-color="#00AAFF"/>
</linearGradient>
</defs>
</svg>
